<?xml version="1.0" standalone="no"?>
<!DOCTYPE svg PUBLIC "-//W3C//DTD SVG 20010904//EN"
 "http://www.w3.org/TR/2001/REC-SVG-20010904/DTD/svg10.dtd">
<svg version="1.0" xmlns="http://www.w3.org/2000/svg"
 width="500.000000pt" height="500.000000pt" viewBox="0 0 500.000000 500.000000"
 preserveAspectRatio="xMidYMid meet">

<g transform="translate(0.000000,500.000000) scale(0.100000,-0.100000)"
fill="#000000" stroke="none">
<path d="M2677 2857 c-68 -70 -172 -223 -237 -349 -61 -118 -92 -153 -167
-192 -60 -30 -77 -14 -53 50 12 30 6 44 -12 26 -7 -7 -21 -12 -32 -12 -12 0
-41 -14 -66 -30 -37 -25 -55 -30 -103 -30 -42 0 -59 4 -63 15 -10 24 -25 17
-19 -8 7 -28 -9 -74 -37 -104 -27 -29 -39 -21 -32 20 l6 32 -33 -40 c-57 -67
-84 -89 -87 -72 -4 18 18 68 49 117 22 33 22 34 2 17 -29 -25 -78 -136 -65
-149 13 -13 42 3 80 46 27 31 31 32 35 15 11 -43 63 -5 88 66 12 32 13 33 75
33 62 0 64 -1 58 -24 -10 -41 23 -29 84 30 l57 54 0 -36 c0 -54 34 -55 108 -3
l57 40 0 -44 c0 -41 2 -45 24 -45 28 0 123 69 181 131 l40 43 -53 -45 c-104
-88 -147 -119 -166 -119 -16 0 -18 6 -14 44 5 38 17 57 93 142 153 171 285
361 285 409 0 29 -41 15 -83 -28z m73 20 c0 -38 -165 -267 -276 -384 l-65 -68
35 71 c93 190 306 455 306 381z m-579 -526 c-13 -23 -90 -85 -97 -78 -15 15
62 97 92 97 11 0 12 -4 5 -19z"/>
<path d="M4045 2800 c-3 -5 -1 -10 4 -10 6 0 11 5 11 10 0 6 -2 10 -4 10 -3 0
-8 -4 -11 -10z"/>
<path d="M3004 2770 c-65 -32 -147 -107 -170 -155 l-15 -30 22 30 c70 94 167
161 249 172 51 7 70 -9 70 -56 0 -51 -48 -124 -107 -161 -49 -31 -110 -53
-124 -44 -8 4 32 79 73 137 11 16 18 30 15 33 -3 3 -27 -31 -54 -75 -30 -51
-54 -80 -65 -81 -19 0 -24 -15 -9 -25 6 -3 -1 -29 -15 -58 -29 -65 -43 -123
-26 -113 7 4 12 18 12 31 0 36 47 135 63 135 8 0 26 -15 40 -34 14 -18 39 -39
56 -45 37 -16 79 2 146 61 31 27 45 35 45 24 0 -30 46 -30 104 2 44 23 56 27
60 15 7 -17 37 -4 78 35 15 14 30 23 33 20 3 -3 -9 -33 -27 -66 l-33 -61 -70
-15 c-177 -40 -415 -99 -412 -103 4 -3 158 31 430 96 22 5 37 5 37 0 0 -5 -63
-77 -141 -161 -146 -156 -171 -190 -152 -209 16 -16 66 13 106 63 47 59 131
187 126 193 -3 2 -32 -37 -64 -86 -68 -103 -141 -177 -157 -161 -8 8 -3 22 16
47 47 62 198 215 206 210 5 -3 18 10 29 28 11 18 29 41 40 51 11 10 18 23 15
28 -3 4 -2 8 3 7 4 -1 15 1 23 4 8 4 89 22 180 41 286 60 373 80 363 83 -5 2
-101 -16 -214 -41 -265 -58 -303 -65 -307 -61 -5 5 135 128 143 126 6 -2 55
73 55 85 0 2 -46 -43 -102 -102 -138 -143 -150 -147 -93 -33 33 65 43 95 36
102 -15 15 -65 -10 -123 -60 -108 -94 -194 -120 -173 -53 4 11 14 20 24 20 20
0 41 19 41 37 0 27 -26 11 -101 -62 -77 -76 -127 -106 -159 -98 -10 3 -32 20
-50 39 l-33 33 29 11 c68 26 97 45 139 92 60 67 76 132 42 176 -17 22 -90 14
-153 -18z m457 -181 c-59 -53 -95 -67 -69 -27 18 28 109 91 117 82 3 -3 -18
-28 -48 -55z m-191 -9 c-8 -5 -17 -7 -19 -4 -3 3 1 9 9 14 8 5 17 7 19 4 3 -3
-1 -9 -9 -14z"/>
<path d="M4120 2724 c-105 -84 -151 -90 -111 -14 11 22 21 42 21 44 0 2 -27
-23 -60 -55 -59 -57 -100 -75 -100 -44 0 28 -28 27 -64 0 l-36 -27 15 42 c19
55 19 60 -4 60 -11 0 -45 -29 -82 -70 -34 -38 -65 -67 -70 -64 -5 3 -9 -2 -9
-10 0 -29 17 -17 74 53 51 62 82 88 93 78 2 -2 -5 -25 -14 -50 -9 -25 -14 -50
-10 -53 4 -4 23 7 41 25 33 32 56 34 56 5 0 -27 49 -15 91 23 33 30 40 33 35
17 -4 -14 -1 -26 9 -34 12 -10 24 -7 67 20 59 35 124 88 117 93 -2 3 -29 -15
-59 -39z"/>
<path d="M4210 2666 c0 -13 -114 -64 -175 -79 -17 -4 -17 -5 -2 -6 31 -2 177
60 187 80 7 13 7 19 0 19 -5 0 -10 -6 -10 -14z"/>
<path d="M831 2335 c-29 -14 -71 -39 -93 -57 -41 -32 -98 -103 -98 -121 0 -6
13 8 29 30 62 86 158 150 240 160 43 5 50 3 65 -18 21 -30 20 -54 -3 -105 -36
-80 -151 -164 -224 -164 l-29 0 32 58 c18 31 43 72 57 90 14 18 23 35 20 38
-6 6 -66 -85 -96 -144 -20 -39 -25 -43 -48 -38 -16 5 -22 3 -18 -4 3 -5 13
-10 21 -10 17 0 18 5 -6 -58 -11 -29 -20 -62 -19 -75 0 -13 6 -3 13 23 25 87
32 97 73 105 98 18 190 86 229 170 29 61 30 99 4 125 -27 27 -83 26 -149 -5z"/>
<path d="M1052 2317 c-34 -35 -39 -56 -21 -74 13 -13 -4 -47 -49 -95 -14 -15
-23 -30 -20 -34 5 -4 79 86 94 114 4 7 34 -12 34 -22 0 -6 -29 -58 -65 -115
-65 -104 -78 -147 -50 -157 21 -8 89 35 166 105 48 43 72 58 86 55 14 -4 36 9
75 45 l56 51 -2 -32 c-1 -27 3 -34 21 -36 30 -4 89 28 155 86 52 46 122 81
135 69 2 -3 -27 -32 -66 -63 -79 -65 -90 -88 -38 -76 17 4 51 7 75 7 23 0 42
4 42 9 0 5 -29 6 -65 3 -36 -4 -65 -5 -65 -2 0 2 29 27 65 55 36 28 65 58 65
66 0 37 -90 0 -168 -69 -88 -78 -165 -101 -147 -44 3 12 9 33 12 47 6 23 5 24
-12 10 -10 -8 -28 -13 -41 -12 -17 3 -51 -24 -146 -115 -210 -200 -267 -205
-145 -13 67 105 74 126 52 150 -15 17 -15 21 4 59 12 22 21 45 21 51 0 20 -27
10 -58 -23z m28 -26 c-20 -41 -50 -56 -50 -25 0 17 58 80 66 71 3 -3 -4 -23
-16 -46z m250 -98 c0 -10 -82 -93 -92 -93 -20 0 -4 31 32 64 38 34 60 45 60
29z"/>
<path d="M2908 2333 c7 -3 16 -2 19 1 4 3 -2 6 -13 5 -11 0 -14 -3 -6 -6z"/>
<path d="M2868 2323 c7 -3 16 -2 19 1 4 3 -2 6 -13 5 -11 0 -14 -3 -6 -6z"/>
<path d="M2828 2313 c7 -3 16 -2 19 1 4 3 -2 6 -13 5 -11 0 -14 -3 -6 -6z"/>
<path d="M2788 2303 c7 -3 16 -2 19 1 4 3 -2 6 -13 5 -11 0 -14 -3 -6 -6z"/>
<path d="M2748 2293 c7 -3 16 -2 19 1 4 3 -2 6 -13 5 -11 0 -14 -3 -6 -6z"/>
<path d="M2708 2283 c7 -3 16 -2 19 1 4 3 -2 6 -13 5 -11 0 -14 -3 -6 -6z"/>
<path d="M2668 2273 c7 -3 16 -2 19 1 4 3 -2 6 -13 5 -11 0 -14 -3 -6 -6z"/>
<path d="M2628 2263 c7 -3 16 -2 19 1 4 3 -2 6 -13 5 -11 0 -14 -3 -6 -6z"/>
<path d="M2588 2253 c7 -3 16 -2 19 1 4 3 -2 6 -13 5 -11 0 -14 -3 -6 -6z"/>
<path d="M2280 2180 c-554 -142 -1759 -489 -1732 -498 5 -1 76 18 158 43 517
158 1145 335 1584 447 151 38 277 72 279 74 10 10 -40 -2 -289 -66z"/>
</g>
</svg>
